<svg width="400" height="120" viewBox="0 0 400 120" xmlns="http://www.w3.org/2000/svg">
  <!-- Left half of head -->
  <g id="head-half">
    <!-- Head outline -->
    <path d="M 20 20 Q 20 10 30 10 L 60 10 Q 70 10 70 20 L 70 80 Q 70 90 60 90 L 30 90 Q 20 90 20 80 Z" 
          fill="none" stroke="#000" stroke-width="2"/>
    <!-- Ear -->
    <path d="M 20 40 Q 15 40 15 50 Q 15 60 20 60" 
          fill="none" stroke="#000" stroke-width="2"/>
    <!-- Nose outline -->
    <path d="M 60 50 Q 70 50 70 60 Q 70 70 60 70" 
          fill="none" stroke="#000" stroke-width="1.5"/>
    <!-- Beard -->
    <path d="M 30 70 Q 25 75 25 85 Q 25 90 30 90 L 60 90 Q 70 90 70 85 Q 70 75 65 70" 
          fill="#000"/>
  </g>
  
  <!-- Text: Simone Greco Solutions -->
  <text x="80" y="35" font-family="Arial, sans-serif" font-size="24" font-weight="600" fill="#000">Simone</text>
  <text x="80" y="60" font-family="Arial, sans-serif" font-size="24" font-weight="600" fill="#000">Greco</text>
  <text x="80" y="85" font-family="Arial, sans-serif" font-size="24" font-weight="600" fill="#000">Solutions</text>
</svg>

